<?xml version="1.0" standalone="no"?>
<!DOCTYPE svg PUBLIC "-//W3C//DTD SVG 20010904//EN"
 "http://www.w3.org/TR/2001/REC-SVG-20010904/DTD/svg10.dtd">
<svg version="1.0" xmlns="http://www.w3.org/2000/svg"
 width="682.000000pt" height="682.000000pt" viewBox="0 0 682.000000 682.000000"
 preserveAspectRatio="xMidYMid meet">
<metadata>
Created by potrace 1.14, written by Peter Selinger 2001-2017
</metadata>
<g transform="translate(0.000000,682.000000) scale(0.100000,-0.100000)"
fill="#000000" stroke="none">
<path d="M3745 4651 c3 -8 0 -18 -7 -23 -9 -5 -7 -8 7 -8 11 0 28 -7 38 -15
19 -14 56 -8 56 9 -1 5 4 12 11 16 8 5 6 11 -5 20 -12 10 -15 10 -15 -4 0 -22
-27 -21 -34 2 -4 10 -16 17 -31 17 -18 0 -24 -4 -20 -14z"/>
<path d="M2602 4653 c-6 -2 -9 -10 -5 -16 5 -8 2 -8 -8 0 -17 13 -85 7 -106
-9 -7 -6 -34 -11 -60 -12 -34 -2 -72 -15 -134 -48 -112 -59 -149 -72 -149 -52
0 20 -23 17 -67 -8 -107 -62 -332 -313 -293 -326 18 -6 -10 -32 -34 -32 -11 0
-34 -10 -50 -23 -55 -42 -206 -192 -206 -204 0 -7 -4 -13 -10 -13 -5 0 -10 9
-10 20 0 26 29 72 41 64 5 -3 9 2 9 10 0 27 -36 18 -64 -16 -28 -34 -32 -48
-15 -48 8 0 7 -5 -1 -15 -8 -10 -16 -12 -19 -6 -9 14 -111 -190 -127 -253 -3
-15 -10 -29 -15 -32 -5 -3 -9 -15 -9 -27 1 -21 1 -21 14 -4 9 12 16 14 21 8
12 -21 25 -11 25 20 0 16 4 28 9 25 9 -6 35 44 26 52 -3 3 6 20 20 38 14 18
25 37 25 42 0 6 7 12 15 16 9 3 12 12 8 22 -5 14 -3 16 12 11 20 -8 46 19 38
40 -6 16 -24 17 -20 2 1 -6 -4 -14 -12 -17 -19 -7 -9 19 13 32 14 8 20 8 23
-1 7 -20 19 -16 56 20 19 17 46 42 58 54 13 11 35 33 48 47 13 14 29 26 37 26
8 0 14 7 14 15 0 8 7 15 15 15 9 0 18 6 21 14 3 8 14 16 25 19 10 3 19 11 19
19 0 7 12 19 28 26 51 23 82 43 82 53 0 6 8 9 18 8 20 -3 82 27 82 41 0 5 7 7
16 3 10 -4 17 1 21 15 6 24 32 36 58 26 12 -5 16 -4 12 3 -4 6 1 17 10 24 14
12 15 11 8 -10 -5 -16 -4 -21 4 -17 6 4 11 14 11 22 0 8 8 14 19 14 10 0 21 9
24 20 3 11 14 20 24 20 10 0 23 4 29 10 5 5 22 11 37 12 15 1 27 6 27 10 0 4
18 5 41 3 31 -3 55 4 107 31 37 18 73 34 80 34 7 0 24 7 37 16 36 24 88 33
137 24 30 -6 50 -4 70 6 15 8 36 14 48 14 11 0 20 5 20 10 0 6 9 10 19 10 11
0 21 5 23 11 2 6 16 12 31 12 15 0 27 4 27 9 0 5 -15 7 -32 4 -18 -2 -67 -8
-108 -11 -41 -4 -83 -11 -94 -17 -25 -13 -185 -13 -199 1 -8 8 -8 11 1 11 6 0
28 11 48 25 21 15 46 23 59 21 19 -4 23 0 21 20 -1 25 -2 26 -24 17z m-122
-98 c0 -9 -9 -15 -22 -15 -21 0 -21 0 -2 15 24 18 24 18 24 0z m-580 -309 c0
-3 -4 -8 -10 -11 -5 -3 -10 -1 -10 4 0 6 5 11 10 11 6 0 10 -2 10 -4z"/>
<path d="M3536 4653 c-4 -4 -26 -8 -48 -8 -36 0 -42 -3 -43 -22 -2 -32 -15
-42 -15 -12 l0 24 -19 -24 c-10 -14 -27 -26 -37 -28 -21 -4 -130 -13 -181 -16
-24 -1 -29 -5 -21 -14 6 -7 14 -10 19 -7 8 5 13 -10 10 -29 -1 -5 4 -5 11 -1
7 5 23 7 36 5 12 -1 22 2 22 7 0 16 52 25 61 10 7 -10 9 -10 9 2 0 12 2 13 9
1 7 -11 11 -10 19 5 7 12 23 19 47 21 21 1 46 10 57 19 17 17 18 17 12 1 -5
-13 -2 -16 10 -11 11 4 16 1 16 -10 0 -9 5 -16 10 -16 17 0 11 28 -7 39 -15 9
-13 11 15 17 25 5 30 9 21 20 -6 7 -8 18 -4 24 7 12 2 13 -9 3z"/>
<path d="M3573 4635 c13 -26 31 -32 42 -14 4 6 12 8 19 6 6 -3 20 1 29 8 15
11 13 13 -20 19 -21 3 -48 6 -60 6 -19 0 -20 -2 -10 -25z"/>
<path d="M3905 4630 c-3 -5 1 -10 10 -10 9 0 13 5 10 10 -3 6 -8 10 -10 10 -2
0 -7 -4 -10 -10z"/>
<path d="M3950 4629 c0 -5 -10 -13 -22 -18 l-22 -8 21 -11 c12 -7 48 -13 80
-15 33 -2 65 -7 72 -11 6 -4 33 -8 59 -8 26 -1 52 -4 57 -8 6 -3 28 -8 50 -9
22 -2 42 -6 45 -10 3 -4 23 -8 45 -10 68 -4 75 -5 75 -13 0 -4 14 -5 31 -1 21
4 34 1 41 -8 7 -11 11 -11 15 -1 7 17 28 15 44 -5 10 -12 11 -17 2 -20 -7 -2
-9 -11 -6 -19 4 -11 9 -12 19 -3 11 9 15 8 20 -5 7 -18 78 -23 89 -6 3 5 24 8
45 6 22 -2 40 -1 40 2 0 4 17 7 37 7 30 0 38 4 37 18 -1 10 5 17 17 17 11 0
19 5 19 11 0 7 -11 9 -32 5 -18 -4 -44 -8 -58 -9 -14 -1 -28 -10 -32 -19 -9
-22 -28 -24 -28 -3 0 8 5 15 11 15 5 0 7 5 4 10 -3 6 -13 10 -21 10 -8 0 -13
-4 -10 -9 3 -5 -1 -14 -8 -20 -11 -9 -16 -9 -21 0 -4 6 -2 15 5 19 17 11 -20
30 -57 30 -32 -1 -52 3 -108 17 -22 6 -58 11 -80 12 -45 2 -63 5 -85 14 -16 7
-90 17 -150 20 -19 1 -38 6 -41 10 -3 4 -35 10 -70 12 -35 2 -79 8 -96 13 -21
7 -33 7 -33 1z m653 -149 c-6 -23 -19 -26 -26 -6 -4 9 1 17 11 19 9 3 18 5 19
6 0 0 -1 -8 -4 -19z"/>
<path d="M3664 4555 c-4 -8 -10 -12 -15 -9 -5 3 -9 1 -9 -4 0 -6 7 -13 16 -16
17 -7 46 22 38 36 -8 13 -24 9 -30 -7z"/>
<path d="M3550 4547 c0 -12 10 -15 40 -14 43 2 57 17 16 17 -13 0 -31 3 -40 6
-10 4 -16 1 -16 -9z"/>
<path d="M3480 4540 c0 -5 5 -10 11 -10 5 0 7 5 4 10 -3 6 -8 10 -11 10 -2 0
-4 -4 -4 -10z"/>
<path d="M4924 4522 c-6 -4 -13 -14 -16 -23 -5 -13 -2 -16 12 -12 20 5 34 29
22 37 -5 3 -13 2 -18 -2z"/>
<path d="M4867 4500 c-7 -26 -4 -34 11 -29 4 2 5 15 2 29 l-6 25 -7 -25z"/>
<path d="M4397 4473 c-4 -3 -7 -11 -7 -17 0 -6 5 -5 12 2 6 6 9 14 7 17 -3 3
-9 2 -12 -2z"/>
<path d="M4474 4464 c5 -12 2 -15 -9 -10 -9 3 -13 2 -10 -4 3 -6 21 -10 38 -9
18 0 27 3 20 5 -7 3 -9 12 -6 20 3 9 -2 14 -17 14 -16 0 -20 -4 -16 -16z"/>
<path d="M2205 4349 c-4 -6 -4 -13 -1 -16 3 -4 6 -1 6 5 0 6 9 9 20 7 11 -2
20 0 20 6 0 13 -37 12 -45 -2z"/>
<path d="M4573 4344 c-3 -9 0 -20 8 -24 19 -12 50 7 42 26 -5 13 -7 13 -14 2
-7 -10 -9 -10 -9 0 0 17 -20 15 -27 -4z"/>
<path d="M4630 4350 c0 -6 11 -15 25 -20 14 -5 25 -14 25 -19 0 -9 48 -26 64
-22 4 1 14 -3 21 -9 7 -6 20 -7 29 -4 11 4 22 -1 31 -12 8 -11 15 -14 15 -9 0
6 15 10 34 10 23 0 32 -4 29 -13 -7 -16 16 -44 30 -35 5 3 16 -2 24 -12 7 -11
13 -16 13 -12 0 18 39 -15 42 -35 3 -23 48 -40 48 -19 0 6 4 11 10 11 5 0 7
-7 4 -15 -6 -15 7 -21 20 -8 14 14 45 9 49 -9 6 -19 27 -25 27 -7 0 7 9 5 25
-5 23 -15 75 -19 75 -5 0 14 -14 18 -31 8 -12 -6 -19 -6 -19 0 0 5 6 12 13 15
6 3 -3 4 -21 2 -24 -3 -35 1 -42 15 -6 10 -20 19 -32 19 -12 0 -29 7 -39 16
-13 12 -22 13 -38 5 -27 -15 -29 -14 -33 15 -3 24 -13 32 -81 66 -10 5 -35 11
-55 14 -20 2 -43 11 -52 19 -9 8 -24 15 -33 15 -9 0 -17 4 -17 8 0 10 -108 42
-140 42 -11 0 -20 -5 -20 -10z"/>
<path d="M4775 4209 c-4 -6 -5 -12 -4 -14 8 -7 48 -9 49 -2 1 27 -1 31 -10 17
-6 -10 -10 -11 -10 -2 0 15 -16 16 -25 1z"/>
<path d="M5120 4211 c0 -15 29 -33 57 -36 40 -4 73 -16 73 -26 0 -5 9 -9 20
-9 11 0 20 4 20 9 0 18 -49 40 -83 38 -27 -3 -37 1 -40 15 -5 18 -47 26 -47 9z"/>
<path d="M4930 4193 c0 -7 -3 -12 -7 -12 -20 3 -24 -2 -13 -16 13 -16 50 -21
50 -7 0 14 -29 48 -30 35z"/>
<path d="M5302 4158 c5 -23 38 -39 38 -18 0 5 -9 14 -20 20 -16 8 -20 8 -18
-2z"/>
<path d="M5010 4074 c0 -15 46 -53 60 -49 9 3 25 -3 36 -13 24 -22 94 -43 154
-44 25 -1 48 -7 52 -12 5 -8 13 -8 25 0 10 6 27 8 38 3 36 -14 45 -11 36 13
-8 22 -37 34 -101 43 -14 2 -43 7 -65 11 -22 4 -49 7 -60 8 -11 1 -22 4 -25 8
-3 4 -25 9 -49 12 -24 2 -47 9 -50 13 -6 9 -51 15 -51 7z"/>
<path d="M5426 3967 c3 -10 9 -15 12 -12 3 3 0 11 -7 18 -10 9 -11 8 -5 -6z"/>
<path d="M5535 3952 c-2 -3 -12 -5 -22 -6 -25 -2 -95 -27 -110 -38 -7 -6 -24
-7 -38 -4 -18 5 -25 2 -25 -8 0 -8 -16 -16 -42 -20 -45 -7 -128 -67 -128 -92
0 -18 40 -18 76 1 32 16 64 20 64 7 0 -5 -11 -15 -25 -22 -42 -22 -78 -77 -71
-106 6 -21 10 -23 21 -14 11 9 12 7 8 -11 l-6 -23 22 21 c31 28 63 20 59 -16
-2 -20 -9 -27 -30 -29 -19 -2 -25 -8 -21 -18 3 -8 0 -14 -6 -14 -6 0 -11 -12
-11 -26 0 -14 4 -23 9 -20 16 10 37 -4 38 -25 1 -11 16 -34 32 -52 31 -31 43
-74 19 -64 -45 16 -58 18 -58 5 0 -15 53 -68 69 -68 6 0 21 -11 33 -25 16 -19
24 -22 31 -13 7 10 10 10 14 -1 3 -7 15 -22 27 -33 11 -10 30 -27 41 -38 34
-31 85 -55 205 -96 63 -21 119 -45 123 -51 4 -7 14 -13 21 -13 22 0 69 -27
120 -70 26 -22 52 -40 56 -40 5 0 11 -9 15 -19 3 -11 12 -18 19 -15 7 3 16 -3
18 -14 3 -10 21 -26 41 -36 20 -9 41 -24 46 -34 9 -14 10 -14 11 -2 0 9 -6 24
-14 35 -21 29 -122 135 -130 135 -3 0 -15 9 -26 20 -11 11 -29 20 -40 20 -11
0 -20 5 -20 10 0 6 0 13 0 18 0 4 22 5 47 3 42 -3 46 -2 34 13 -7 9 -12 16
-10 17 2 0 23 2 47 4 47 4 112 30 112 45 0 6 7 10 15 10 8 0 15 -4 15 -9 0 -5
11 -8 25 -8 22 0 24 3 20 33 -3 22 0 34 8 34 31 1 78 65 54 73 -9 3 -9 7 1 19
7 9 10 27 6 45 -4 18 -1 33 5 37 6 4 11 16 11 27 0 10 6 19 14 19 38 0 7 112
-36 126 -10 3 -18 12 -18 20 0 8 -5 14 -11 14 -6 0 -16 6 -24 13 -7 7 -27 25
-43 39 -38 32 -50 69 -28 87 9 7 13 17 10 22 -3 5 0 9 5 9 6 0 11 -9 11 -19 0
-31 11 -51 27 -51 11 0 13 4 6 13 -13 17 -10 36 7 47 8 6 10 10 3 10 -6 0 -10
8 -9 18 3 18 -40 82 -55 82 -4 0 -20 11 -34 25 -34 31 -102 53 -196 64 -41 5
-87 14 -104 21 -28 11 -319 13 -330 2z m510 -113 c4 -6 13 -8 21 -5 8 3 14 1
14 -4 0 -6 8 -10 18 -10 11 0 27 -10 38 -21 19 -22 19 -22 -6 -14 -32 10 -119
65 -103 65 6 0 15 -5 18 -11z m-659 -164 c-16 -17 -36 -20 -36 -6 0 10 17 19
38 20 10 1 10 -3 -2 -14z m-49 -37 c-3 -8 -6 -5 -6 6 -1 11 2 17 5 13 3 -3 4
-12 1 -19z m-42 -94 c-10 -7 -22 -11 -26 -8 -14 8 14 32 30 26 11 -4 10 -8 -4
-18z m973 -276 c-2 -4 6 -14 17 -22 24 -18 15 -20 -19 -5 -23 11 -27 44 -4 37
5 -2 8 -7 6 -10z"/>
<path d="M5290 3625 c0 -8 2 -15 4 -15 2 0 6 7 10 15 3 8 1 15 -4 15 -6 0 -10
-7 -10 -15z"/>
<path d="M5240 3599 c0 -5 5 -7 10 -4 6 3 10 8 10 11 0 2 -4 4 -10 4 -5 0 -10
-5 -10 -11z"/>
<path d="M1227 3545 c-17 -17 -11 -55 8 -55 15 0 29 44 15 48 -6 2 -8 8 -4 13
8 14 -3 11 -19 -6z"/>
<path d="M1191 3496 c-6 -7 -8 -22 -5 -32 4 -11 4 -16 0 -12 -11 9 -54 -30
-80 -72 -62 -99 -67 -108 -55 -116 8 -4 9 -3 5 4 -4 7 -2 12 4 12 7 0 10 -6 7
-12 -2 -7 -11 -12 -21 -10 -16 3 -21 -12 -18 -50 2 -15 -11 -22 -38 -20 -3 0
-6 -16 -8 -36 -2 -35 -18 -56 -34 -46 -4 3 -7 -10 -6 -29 3 -32 28 -50 28 -20
0 8 5 11 12 7 8 -5 9 -2 5 11 -8 19 10 48 24 39 5 -3 9 0 9 5 0 6 -4 11 -10
11 -5 0 -10 9 -10 19 0 24 30 37 30 13 1 -15 3 -15 16 3 8 11 12 30 9 42 -4
16 1 27 19 39 14 8 33 36 42 60 9 24 21 44 25 44 5 0 9 7 9 15 0 8 5 15 11 15
5 0 7 5 4 10 -3 6 -2 10 4 10 6 0 8 6 5 14 -3 8 2 17 14 20 14 5 18 15 18 41
-1 40 0 39 -15 21z m-56 -116 c3 -5 -1 -10 -10 -10 -9 0 -13 5 -10 10 3 6 8
10 10 10 2 0 7 -4 10 -10z m-15 -40 c-6 -11 -12 -20 -14 -20 -3 0 -1 23 3 38
1 1 6 2 11 2 7 0 7 -6 0 -20z m-150 -260 c0 -5 -4 -10 -10 -10 -5 0 -10 5 -10
10 0 6 5 10 10 10 6 0 10 -4 10 -10z"/>
<path d="M1007 3330 c-3 -11 -1 -20 4 -20 5 0 9 9 9 20 0 11 -2 20 -4 20 -2 0
-6 -9 -9 -20z"/>
<path d="M960 3240 c0 -5 4 -10 9 -10 6 0 13 5 16 10 3 6 -1 10 -9 10 -9 0
-16 -4 -16 -10z"/>
<path d="M3107 3053 c-4 -6 -45 -11 -91 -12 -47 -1 -100 -6 -118 -11 -18 -6
-48 -10 -65 -10 -18 0 -33 -4 -33 -9 0 -5 -15 -12 -32 -15 -75 -15 -136 -115
-125 -201 6 -44 73 -195 86 -195 4 0 12 5 18 11 12 12 43 -13 43 -35 0 -8 10
-11 29 -8 23 3 35 -3 61 -32 18 -20 38 -36 44 -36 6 1 -2 12 -19 26 l-30 26
34 -17 c18 -9 35 -24 38 -34 2 -9 20 -25 39 -36 19 -10 34 -22 34 -27 0 -4 6
-8 13 -8 8 0 28 -17 45 -39 20 -25 42 -41 64 -45 18 -3 42 -17 53 -30 11 -13
52 -34 90 -48 78 -28 150 -29 226 -5 24 8 57 15 72 15 16 1 42 14 58 29 21 20
37 27 59 25 43 -5 54 5 36 34 -20 30 -20 31 3 37 16 4 19 12 16 36 -2 17 2 36
9 44 23 22 1 53 -51 73 -75 28 -97 52 -47 52 27 0 44 16 43 42 0 11 -2 11 -6
2 -4 -10 -8 -9 -17 3 -7 9 -29 18 -49 19 -34 3 -67 20 -56 30 2 2 28 7 58 10
57 7 71 12 71 25 0 16 -65 39 -103 36 -22 -2 -43 3 -51 11 -8 7 -16 10 -20 7
-3 -4 -6 -1 -6 5 0 7 -9 12 -20 12 -11 0 -20 5 -20 10 0 6 -4 10 -9 10 -6 0
-27 10 -48 22 -49 30 -22 36 40 9 39 -17 47 -18 58 -5 9 11 9 14 0 14 -7 0
-10 4 -7 9 3 4 -6 13 -19 19 -14 7 -25 16 -25 20 0 5 -21 15 -47 22 -69 18
-113 40 -113 56 0 10 -13 14 -46 14 -28 0 -51 6 -62 16 -14 15 -17 15 -29 -2
-12 -17 -13 -17 -13 3 0 12 -5 25 -12 29 -7 4 -8 3 -4 -4 4 -7 2 -12 -4 -12
-6 0 -8 -6 -5 -12 4 -7 -2 -2 -13 11 -11 13 -22 19 -25 14z m520 -449 c-3 -3
-12 -4 -19 -1 -8 3 -5 6 6 6 11 1 17 -2 13 -5z"/>
<path d="M889 3018 c-1 -18 -1 -39 0 -46 1 -8 -2 -19 -7 -25 -15 -19 -25 -100
-11 -92 8 6 8 2 0 -12 -6 -11 -8 -23 -5 -25 2 -3 -2 -11 -11 -18 -8 -7 -15
-19 -15 -26 0 -8 -3 -14 -7 -14 -5 0 -28 -40 -52 -89 -33 -65 -49 -87 -60 -83
-9 3 -12 1 -7 -6 4 -7 3 -12 -2 -12 -11 0 -62 -46 -62 -55 0 -4 -8 -19 -18
-33 -21 -30 -72 -185 -72 -217 0 -12 -4 -25 -8 -30 -11 -13 -32 -131 -32 -183
0 -35 11 -52 34 -52 2 0 13 44 25 98 13 53 27 107 32 120 5 13 7 28 4 33 -4 5
-1 9 4 9 6 0 11 8 11 18 1 33 37 127 43 112 3 -8 4 -3 1 11 -3 14 1 42 9 62 9
19 13 38 9 41 -3 3 0 6 6 6 16 0 15 -23 0 -38 -9 -9 -7 -12 11 -12 16 0 21 4
17 15 -3 8 -1 15 5 15 7 0 9 10 4 28 -6 25 -5 26 11 10 16 -15 18 -13 45 40
16 31 32 58 37 61 8 7 45 70 70 121 9 19 25 42 34 50 14 12 15 23 9 58 -7 34
-5 46 8 59 11 12 12 18 4 20 -9 3 -9 12 -2 29 14 39 11 42 -10 10 -11 -17 -17
-34 -14 -39 3 -6 1 -7 -5 -3 -7 4 -12 20 -12 36 0 22 4 28 15 24 9 -4 15 0 15
10 0 9 -4 16 -10 16 -5 0 -10 7 -10 15 0 8 -7 15 -15 15 -10 0 -15 -11 -16
-32z m21 -110 c0 -18 -2 -20 -9 -8 -6 8 -7 18 -5 22 9 14 14 9 14 -14z"/>
<path d="M1455 3035 c-27 -8 -66 -15 -85 -15 -23 0 -54 -12 -89 -35 -29 -19
-56 -35 -60 -35 -7 0 -85 -55 -107 -75 -6 -5 -41 -37 -78 -70 -80 -73 -100
-120 -94 -226 4 -69 4 -69 57 -120 29 -27 58 -48 64 -46 7 2 25 -5 40 -16 20
-13 32 -16 39 -9 7 7 19 7 39 0 22 -8 47 -6 99 7 39 9 73 21 76 26 3 5 12 9
20 9 8 0 24 9 36 20 12 11 28 20 35 20 7 0 13 5 13 10 0 6 5 10 12 10 6 0 19
7 29 16 10 9 32 17 49 18 16 0 30 4 30 8 0 5 8 8 18 9 14 0 14 2 -3 9 -16 7
-17 9 -3 9 19 1 31 31 22 55 -4 12 5 27 31 49 34 29 36 35 23 47 -13 13 -13
17 1 42 9 16 25 28 36 28 11 0 31 3 43 7 18 4 20 8 10 14 -9 6 -7 9 10 9 34 0
28 29 -8 37 -43 8 -39 33 5 33 37 0 60 25 45 50 -5 8 -7 18 -4 22 3 4 -7 10
-21 14 -16 4 -25 13 -25 25 0 10 -5 19 -11 19 -5 0 -7 -4 -4 -10 10 -16 -21
-12 -35 5 -7 8 -17 12 -22 9 -10 -7 -68 15 -68 25 0 12 -116 9 -165 -4z"/>
<path d="M3543 2850 c-11 -16 -10 -18 2 -14 8 4 15 12 15 20 0 19 -3 18 -17
-6z"/>
<path d="M6047 2798 c15 -15 29 -25 32 -22 3 3 -2 10 -11 15 -10 5 -15 16 -12
24 4 9 -1 13 -15 12 -20 -1 -19 -3 6 -29z"/>
<path d="M1691 2756 c-7 -8 -8 -17 -3 -20 6 -3 13 1 16 10 9 23 2 28 -13 10z"/>
<path d="M6125 2752 c-11 -11 -4 -22 14 -22 11 0 22 -8 24 -17 3 -13 5 -12 6
5 1 15 5 21 14 16 9 -5 9 -4 0 6 -13 14 -49 21 -58 12z"/>
<path d="M6190 2701 c0 -5 7 -14 15 -21 8 -7 15 -9 15 -4 0 5 9 -6 20 -23 23
-39 40 -43 40 -10 0 16 -9 28 -27 36 -16 8 -36 17 -45 22 -11 5 -18 5 -18 0z"/>
<path d="M1860 2672 c-79 -3 -138 -21 -145 -43 -4 -11 -10 -17 -15 -14 -5 3
-15 -8 -23 -25 -15 -28 -14 -32 9 -59 13 -16 41 -36 61 -44 55 -22 69 -44 80
-122 10 -66 9 -72 -12 -97 -28 -33 -40 -81 -27 -104 7 -13 23 -17 69 -16 33 0
70 5 82 11 13 7 27 8 38 3 43 -22 82 -30 86 -18 8 22 -5 42 -36 56 -40 18 -86
49 -116 79 -19 19 -25 37 -29 93 -4 57 -2 68 11 68 9 0 21 9 27 20 6 11 16 20
23 20 20 0 119 49 154 76 28 21 31 28 23 44 -23 43 -147 78 -260 72z"/>
<path d="M6319 2668 c-7 -32 -8 -51 -1 -40 5 7 16 10 26 6 14 -5 17 -3 14 12
-3 15 -36 34 -39 22z"/>
<path d="M6143 2636 c5 -16 24 -18 30 -2 4 10 0 14 -14 13 -10 -1 -18 -6 -16
-11z"/>
<path d="M6190 2629 c0 -5 5 -7 10 -4 6 3 10 8 10 11 0 2 -4 4 -10 4 -5 0 -10
-5 -10 -11z"/>
<path d="M1635 2620 c-3 -5 -1 -10 4 -10 6 0 11 5 11 10 0 6 -2 10 -4 10 -3 0
-8 -4 -11 -10z"/>
<path d="M3730 2621 c0 -3 9 -12 20 -19 16 -10 20 -10 20 2 0 7 -9 16 -20 19
-11 3 -20 2 -20 -2z"/>
<path d="M6230 2570 c0 -21 13 -38 26 -33 8 3 14 1 14 -5 0 -12 89 -39 158
-47 49 -5 52 -5 41 12 -13 21 -58 45 -70 37 -5 -3 -9 0 -9 5 0 6 -19 11 -42
11 -24 1 -60 7 -80 14 -21 8 -38 10 -38 6z"/>
<path d="M6162 2429 c2 -7 29 -25 59 -40 29 -16 46 -29 37 -29 -9 0 -29 -5
-45 -12 -15 -6 -34 -12 -42 -14 -52 -10 -59 -14 -54 -33 7 -26 30 -34 41 -15
9 16 35 21 152 29 102 7 128 13 133 33 4 15 5 15 6 0 1 -22 43 -25 60 -5 8 11
5 16 -15 25 -14 7 -35 10 -48 6 -18 -4 -91 14 -166 43 -8 3 -19 7 -25 8 -5 0
-19 5 -29 10 -13 6 -21 5 -24 -3 -3 -9 -9 -9 -24 -1 -16 8 -19 8 -16 -2z"/>
<path d="M6460 2233 c0 -17 40 -47 68 -50 85 -10 125 -7 119 10 -2 6 -10 11
-16 10 -6 -2 -11 1 -11 6 0 11 -33 19 -105 27 -33 4 -55 2 -55 -3z"/>
<path d="M6224 2205 c-7 -18 3 -35 20 -35 8 0 19 -7 26 -15 7 -8 21 -15 31
-15 11 0 19 -4 19 -10 0 -5 6 -10 13 -10 6 0 24 -6 39 -14 15 -8 35 -13 45
-12 10 2 21 -2 25 -8 11 -16 18 -3 12 21 -7 27 -32 37 -50 22 -11 -9 -14 -8
-14 5 0 10 -4 14 -10 11 -5 -3 -10 -2 -10 3 0 5 -12 14 -26 21 -20 9 -30 9
-40 0 -12 -9 -13 -9 -8 4 4 11 -4 21 -25 31 -37 20 -40 20 -47 1z"/>
<path d="M6269 2068 c-16 -13 -16 -15 0 -33 14 -17 31 -20 130 -23 108 -2 141
5 141 28 0 9 -55 28 -80 28 -8 1 -51 3 -95 7 -58 4 -84 2 -96 -7z"/>
<path d="M526 1991 c-4 -7 -5 -15 -2 -18 9 -9 19 4 14 18 -4 11 -6 11 -12 0z"/>
<path d="M567 1930 c-9 -11 -13 -20 -8 -20 11 0 35 29 29 35 -2 2 -12 -4 -21
-15z"/>
<path d="M6124 1926 c-8 -22 3 -33 18 -18 9 9 9 15 0 24 -9 9 -13 7 -18 -6z"/>
<path d="M510 1902 c0 -24 4 -30 15 -26 8 4 15 12 15 19 0 7 -7 18 -15 25 -13
11 -15 8 -15 -18z"/>
<path d="M6165 1899 c-7 -10 10 -18 35 -17 8 0 23 -3 33 -7 13 -6 16 -3 11 9
-3 9 -9 17 -13 17 -37 7 -62 6 -66 -2z"/>
<path d="M556 1849 c-3 -17 -2 -39 4 -49 5 -9 7 -20 4 -23 -3 -3 2 -17 11 -31
12 -19 14 -26 5 -26 -21 0 -4 -108 25 -164 14 -27 25 -57 25 -67 0 -9 5 -19
12 -21 6 -2 16 -22 22 -43 9 -29 18 -41 36 -45 18 -4 26 -14 30 -35 l5 -30 16
22 c14 21 15 21 27 3 9 -14 8 -21 -3 -30 -20 -17 -4 -44 45 -75 21 -13 53 -39
72 -57 18 -19 42 -40 52 -48 18 -14 19 -13 12 5 -4 13 -4 16 2 10 5 -5 12 -31
15 -57 5 -51 3 -53 -49 -49 -28 3 -122 -89 -130 -127 -3 -15 -9 -36 -14 -47
-4 -11 -13 -33 -19 -48 -6 -15 -11 -45 -11 -67 0 -21 -4 -41 -9 -44 -5 -3 -9
-25 -10 -48 0 -24 -3 -80 -5 -126 -3 -58 -1 -85 7 -88 7 -2 13 -22 13 -44 4
-95 145 -247 244 -264 8 -1 32 -10 52 -20 20 -10 45 -19 55 -20 14 -2 19 -13
21 -49 l3 -47 549 0 c484 0 549 2 544 15 -7 18 -30 20 -40 4 -5 -8 -8 -8 -13
0 -4 6 -29 13 -57 16 -69 6 -127 16 -139 23 -5 4 -27 7 -49 8 -21 1 -43 7 -49
13 -6 6 -15 7 -21 2 -14 -12 -68 -2 -60 11 3 5 -2 16 -12 23 -17 13 -17 16 -4
24 14 10 84 9 120 0 8 -2 14 2 12 9 -3 16 3 15 38 -3 16 -8 31 -11 34 -6 3 4
31 4 61 -1 31 -5 60 -6 66 -3 11 8 70 -24 87 -48 15 -19 44 -16 72 9 13 11 20
11 40 1 14 -7 59 -19 100 -27 41 -7 80 -16 85 -20 6 -3 26 -7 45 -9 19 -1 49
-4 65 -7 66 -12 82 -15 140 -19 33 -3 386 -7 784 -11 l724 -6 -6 29 c-2 15
-10 55 -16 88 -6 33 -14 75 -17 94 -3 20 -9 30 -13 23 -4 -6 -6 52 -5 129 2
101 7 147 17 162 8 12 17 56 20 97 8 84 9 92 26 173 7 32 10 61 7 64 -3 4 -17
1 -30 -5 -13 -6 -33 -8 -45 -5 -12 3 -21 1 -21 -5 0 -5 -10 -10 -22 -9 -35 0
-121 -14 -139 -24 -14 -7 -74 -14 -204 -24 -16 -1 -32 -3 -35 -4 -3 -1 -59 -5
-125 -9 -163 -9 -437 -5 -695 12 -47 3 -157 8 -245 11 -204 6 -348 14 -405 21
-24 3 -59 6 -77 7 -17 2 -35 6 -39 10 -4 4 -19 7 -34 7 -15 0 -39 12 -56 28
-16 15 -53 45 -81 66 -50 36 -66 56 -43 56 6 0 10 -4 10 -9 0 -4 12 -6 26 -3
l27 5 -34 17 c-19 10 -48 25 -65 34 -17 8 -62 18 -100 22 -38 3 -80 12 -94 19
-20 11 -133 51 -195 69 -5 2 -17 6 -25 9 -47 18 -228 40 -245 29 -5 -3 -16 -7
-25 -7 -8 -1 -31 -7 -51 -15 -30 -11 -35 -17 -31 -36 3 -17 0 -24 -11 -24 -9
0 -19 5 -22 10 -3 6 -15 10 -26 10 -10 0 -19 5 -19 11 0 16 -33 54 -47 54 -6
0 -15 -4 -20 -8 -4 -5 -2 -7 6 -5 7 2 16 -3 18 -10 4 -10 -2 -11 -24 -6 -54
13 -73 24 -113 64 -22 22 -44 40 -50 40 -5 0 -10 4 -10 9 0 4 -16 29 -35 54
-25 33 -40 44 -52 40 -11 -4 -14 -2 -11 8 3 8 1 22 -4 32 -9 18 -10 18 -24 0
-12 -16 -13 -15 -10 16 2 22 -5 54 -19 85 -31 68 -66 193 -68 244 0 15 -17 16
-17 0 0 -6 -6 -3 -14 7 -8 11 -11 26 -7 35 7 13 7 35 2 83 -2 19 -19 3 -25
-24z"/>
<path d="M6397 1850 c-16 -5 -37 -7 -48 -5 -16 3 -20 -1 -17 -18 2 -18 8 -21
33 -19 17 2 32 8 33 13 2 5 8 7 13 3 11 -7 51 20 42 29 -8 9 -20 8 -56 -3z"/>
<path d="M6306 1831 c-4 -7 -5 -15 -2 -18 9 -9 19 4 14 18 -4 11 -6 11 -12 0z"/>
<path d="M6088 1769 c10 -26 32 -38 32 -16 0 7 7 14 15 14 8 0 15 -3 15 -6 0
-13 93 -12 101 1 6 9 9 9 9 1 0 -6 9 -9 20 -6 12 3 19 11 17 17 -4 13 -87 20
-87 7 0 -10 -68 -7 -108 5 -20 6 -21 4 -14 -17z"/>
<path d="M6424 1696 c-10 -26 4 -46 30 -46 14 0 37 -5 52 -10 30 -12 84 -4 84
11 0 5 -5 9 -11 9 -7 0 -17 7 -23 15 -6 9 -31 17 -57 19 -26 2 -52 7 -58 10
-6 4 -14 0 -17 -8z"/>
<path d="M6330 1645 c0 -9 10 -26 23 -38 13 -12 26 -30 30 -39 3 -10 11 -18
17 -18 5 0 10 -5 10 -11 0 -5 -4 -8 -8 -5 -12 7 -86 -14 -94 -28 -6 -8 -8 -8
-8 1 0 12 -37 6 -45 -7 -8 -13 6 -40 21 -40 8 0 14 3 14 8 0 4 10 8 23 8 12 1
50 4 85 8 85 8 141 46 95 63 -10 4 -21 11 -25 17 -5 7 -8 4 -8 -6 0 -12 -7
-18 -22 -17 -17 1 -19 2 -5 6 9 2 17 8 17 13 0 16 -62 80 -71 74 -5 -3 -9 2
-9 10 0 9 -9 16 -20 16 -11 0 -20 -7 -20 -15z"/>
<path d="M6374 1461 c-5 -5 -24 -10 -69 -16 -53 -8 -75 -15 -75 -25 0 -6 6
-10 13 -10 8 0 7 -4 -3 -11 -22 -16 130 -3 161 13 48 26 50 28 37 42 -13 12
-54 16 -64 7z"/>
<path d="M6260 1295 c0 -8 -4 -15 -10 -15 -5 0 -10 4 -10 9 0 5 -9 7 -20 4
-10 -3 -19 -8 -18 -12 3 -25 -3 -34 -14 -23 -15 15 -32 16 -23 2 3 -5 -2 -11
-12 -11 -50 -4 -65 -7 -76 -18 -6 -6 -23 -11 -38 -11 -15 0 -30 -4 -33 -9 -3
-5 -21 -12 -40 -15 -20 -4 -48 -13 -63 -21 -15 -8 -34 -15 -40 -15 -26 0 -183
-85 -179 -96 2 -6 -1 -17 -7 -23 -8 -8 -5 -19 11 -41 31 -41 29 -68 -5 -76
-16 -4 -32 -10 -38 -14 -5 -4 -35 -13 -65 -20 -30 -6 -62 -14 -71 -16 -8 -2
-33 -22 -56 -43 -31 -30 -38 -42 -29 -51 8 -10 6 -10 -12 -1 -27 14 -42 7 -43
-22 0 -12 -3 -16 -6 -9 -7 18 -21 15 -28 -8 -4 -11 -19 -34 -34 -51 -16 -16
-33 -45 -39 -62 -6 -18 -24 -65 -41 -106 -30 -71 -40 -131 -22 -131 5 0 11
-11 13 -25 4 -20 2 -23 -7 -15 -16 14 -28 -2 -19 -24 5 -13 9 -14 20 -5 11 9
14 8 15 -7 5 -142 6 -216 2 -202 -2 10 -9 18 -14 18 -6 0 -8 4 -5 9 3 5 -1 12
-9 15 -8 3 -14 9 -13 13 2 4 -1 8 -7 8 -12 0 -8 -53 9 -120 l12 -50 812 -3
812 -2 0 330 c0 261 -3 338 -14 364 -15 37 -38 56 -44 38 -6 -20 -20 -13 -26
14 -4 15 -12 32 -19 40 -29 33 -37 44 -37 54 0 6 -11 15 -24 21 -32 15 -40 46
-15 54 13 5 37 -8 79 -41 36 -28 65 -44 75 -41 19 8 20 27 0 27 -8 0 -15 4
-15 10 0 13 -70 90 -82 90 -5 0 -29 16 -52 35 -24 19 -48 35 -53 35 -6 0 -14
7 -17 16 -5 13 1 14 42 9 26 -4 54 -9 62 -12 26 -10 50 -13 50 -7 0 20 -136
104 -168 104 -7 0 -12 5 -12 10 0 6 -5 10 -12 10 -10 0 -105 41 -138 59 -8 5
-14 18 -13 30 3 25 -16 27 -58 6 -16 -9 -34 -13 -40 -9 -6 3 -18 -1 -28 -10
-20 -18 -51 -12 -51 10 0 8 8 14 18 14 10 0 29 11 42 25 19 21 21 25 7 25 -9
0 -17 -7 -17 -15z m-67 -82 c-11 -31 -15 -34 -29 -22 -12 10 -12 14 3 25 25
18 34 17 26 -3z m422 -282 c10 -17 -12 -21 -25 -6 -10 12 -10 15 3 15 9 0 18
-4 22 -9z"/>
<path d="M4492 1032 c-22 -3 -40 -27 -29 -38 7 -7 77 18 77 27 0 10 -22 15
-48 11z"/>
<path d="M4703 1018 c-35 -6 -53 -14 -53 -24 0 -19 53 -18 96 2 68 33 54 40
-43 22z"/>
<path d="M4560 937 c0 -8 10 -27 21 -41 16 -21 24 -24 30 -15 10 16 -6 45 -31
59 -16 8 -20 8 -20 -3z"/>
<path d="M5170 299 c0 -5 9 -9 20 -9 11 0 20 2 20 4 0 2 -9 6 -20 9 -11 3 -20
1 -20 -4z"/>
<path d="M5180 267 c0 -10 8 -17 18 -17 9 0 13 4 7 8 -5 4 -13 11 -17 16 -5 5
-8 2 -8 -7z"/>
</g>
</svg>
